HIERARCHY
ROOT COM
{
  OFFSET -10.5682 89.9488 26.191
  CHANNELS 6 Xposition Yposition Zposition Zrotation Xrotation Yrotation
  JOINT Spine
  {
    OFFSET 0 10.0313 -3.64775
    CHANNELS 3 Zrotation Xrotation Yrotation
    JOINT Spine1
    {
      OFFSET 0 14.268 -0.0123585
      CHANNELS 3 Zrotation Xrotation Yrotation
      JOINT Spine2
      {
        OFFSET 0 15.5534 -0.0118018
        CHANNELS 3 Zrotation Xrotation Yrotation
        JOINT Neck
        {
          OFFSET 0 15.3437 -0.00507736
          CHANNELS 3 Zrotation Xrotation Yrotation
          JOINT Head
          {
            OFFSET 0 6.5943 0
            CHANNELS 3 Zrotation Xrotation Yrotation
            End Site
            {
              OFFSET 0 0 0
            }
          }
          JOINT Leftcollar
          {
            OFFSET 4.25429 -1.5481 1.99067
            CHANNELS 3 Zrotation Xrotation Yrotation
            JOINT LeftArm
            {
              OFFSET 16.8259 0 0
              CHANNELS 3 Zrotation Xrotation Yrotation
              JOINT LeftForeArm
              {
                OFFSET 0 -28.058 0
                CHANNELS 3 Zrotation Xrotation Yrotation
                JOINT LeftHand
                {
                  OFFSET 0 -24.7253 0
                  CHANNELS 3 Zrotation Xrotation Yrotation
                  End Site
                  {
                    OFFSET -2.98615 -9.94619 -0.575321
                  }
                }
              }
            }
          }
          JOINT RightCollar
          {
            OFFSET -4.25428 -1.54809 1.99069
            CHANNELS 3 Zrotation Xrotation Yrotation
            JOINT RightArm
            {
              OFFSET -16.8259 0 0
              CHANNELS 3 Zrotation Xrotation Yrotation
              JOINT RightForeArm
              {
                OFFSET 0 -28.058 0
                CHANNELS 3 Zrotation Xrotation Yrotation
                JOINT RightHand
                {
                  OFFSET 0 -24.7253 0
                  CHANNELS 3 Zrotation Xrotation Yrotation
                  End Site
                  {
                    OFFSET 2.98615 -9.94618 -0.575319
                  }
                }
              }
            }
          }
        }
      }
    }
  }
  JOINT LeftUpLeg
  {
    OFFSET 9.94275 0 0
    CHANNELS 3 Zrotation Xrotation Yrotation
    JOINT LeftLeg
    {
      OFFSET 0 -45.973 0
      CHANNELS 3 Zrotation Xrotation Yrotation
      JOINT LeftFoot
      {
        OFFSET 0 -43.1634 0
        CHANNELS 3 Zrotation Xrotation Yrotation
        JOINT LeftToe
        {
          OFFSET 0 0 15.6286
          CHANNELS 3 Zrotation Xrotation Yrotation
          End Site
          {
            OFFSET 0 0 0
          }
        }
      }
    }
  }
  JOINT RightUpLeg
  {
    OFFSET -9.94275 0 0
    CHANNELS 3 Zrotation Xrotation Yrotation
    JOINT RightLeg
    {
      OFFSET 0 -45.973 0
      CHANNELS 3 Zrotation Xrotation Yrotation
      JOINT RightFoot
      {
        OFFSET 0 -43.1634 0
        CHANNELS 3 Zrotation Xrotation Yrotation
        JOINT RightToe
        {
          OFFSET 0 0 15.6286
          CHANNELS 3 Zrotation Xrotation Yrotation
          End Site
          {
            OFFSET 0 0 0
          }
        }
      }
    }
  }
}
MOTION
Frames:	10
Frame Time:	0.0333333
-54.1845 87.9161 90.5787 -8.86485 -16.4283 151.521 1.61752 -17.4645 -0 -5.38081e-016 -3.97569e-016 -5.56868 -7.45443e-017 -9.93923e-017 1.27222e-014 -2.98177e-016 1.98785e-016 1.59028e-014 -3.47873e-016 3.97569e-016 1.27222e-014 -3.47873e-016 3.97569e-016 1.27222e-014 26.1874 -20.2442 -19.0594 -5.75365e-015 -38.9731 -4.09105e-015 -6.36111e-014 3.89506e-030 90 -3.47873e-016 3.97569e-016 1.27222e-014 -18.563 13.9105 6.7567 -1.59028e-015 -12.2657 -0 -4.77083e-015 -2.92129e-031 -90 0.120314 -2.83614 10.5458 -2.98959e-015 29.3934 1.09514e-014 3.51726e-008 -5.04579 -7.14968 -1.59028e-015 -6.36111e-015 9.54166e-015 -2.68328 -47.3334 -8.27771 1.77392e-015 29.1501 -3.6418e-015 -2.71794e-009 1.98825 3.18838 2.98177e-016 5.96354e-016 3.18055e-015 
-51.0944 88.3498 87.018 -7.25585 -17.3127 151.956 3.18743 -18.4377 -1.0058e-014 1.10673e-015 9.93923e-017 -5.15623 2.48481e-016 -9.93923e-017 -3.18055e-015 -2.98177e-016 0 -1.27222e-014 4.96962e-017 -1.49089e-016 -1.27222e-014 4.96962e-017 -1.49089e-016 -1.27222e-014 24.9458 -17.4774 -21.42 -1.39786e-015 -37.9631 8.06831e-015 1.27222e-014 -7.79011e-031 90 4.96962e-017 -1.49089e-016 -1.27222e-014 -17.9206 11.9114 7.25483 3.18055e-015 -13.0962 -0 3.33958e-014 2.0449e-030 -90 3.38883 -5.96939 10.8925 -1.43711e-015 39.5854 4.12697e-015 -1.08342e-008 1.41187 -6.06359 8.82781e-032 -3.18055e-015 1.59028e-015 0.0616973 -45.2517 -7.8559 0 31.2874 -0 -2.2736e-009 -1.1436 3.31042 -5.51738e-032 -9.93923e-016 -3.18055e-015 
-48.5236 88.82 83.8181 -6.34145 -17.2237 152.36 3.62792 -18.2195 -1.00453e-014 -4.83273e-016 1.98785e-016 -4.35128 -9.93923e-017 0 -3.18055e-015 -9.93923e-017 9.93923e-017 3.18055e-015 -9.93923e-017 -2.98177e-016 -3.18055e-015 -9.93923e-017 -2.98177e-016 -3.18055e-015 23.6694 -15.2844 -24.416 1.91148e-014 -36.9604 1.59217e-014 1.27222e-014 -7.79011e-031 90 -9.93923e-017 -2.98177e-016 -3.18055e-015 -17.6877 9.619 15.7416 -8.63947e-016 -15.1968 -3.29581e-015 7.95139e-016 4.86882e-032 -90 5.21886 -10.5195 10.4123 7.95139e-016 50.9081 -0 -5.26313e-009 9.52681 -2.87531 3.18055e-015 3.18055e-015 -7.95139e-016 1.2659 -42.3536 -8.32808 4.36757e-015 32.0791 3.75368e-015 -1.78591e-008 -3.86958 3.80034 -6.62086e-032 -3.97569e-016 -9.54166e-015 
-46.2472 89.3911 80.813 -5.36334 -17.0919 153.121 4.08035 -17.6429 -3.33754e-015 -1.28291e-015 1.98785e-016 -3.24062 -1.98785e-016 -4.96962e-017 -6.36111e-015 -5.51738e-033 -4.96962e-017 -6.36111e-015 -4.96962e-017 -4.96962e-017 -0 -4.96962e-017 -4.96962e-017 -0 22.1953 -13.2274 -27.3599 -1.79948e-015 -35.6448 7.82766e-015 2.8625e-014 -1.75278e-030 90 -4.96962e-017 -4.96962e-017 -0 -17.8413 6.54884 16.2928 1.30801e-015 -17.8746 1.67093e-015 -2.3556e-014 -1.44239e-030 -90 6.26095 -15.5934 9.19968 5.21219e-015 60.4066 -1.28809e-014 -4.45714e-008 15.2389 1.97695 9.54166e-015 0 -0 2.09979 -38.8398 -9.23745 4.5652e-015 31.3346 -1.48947e-014 -2.51228e-008 -5.84283 4.38081 3.97569e-016 7.95139e-016 6.36111e-015 
-44.1034 90.0507 77.8714 -4.77854 -16.8555 153.781 4.03697 -17.3917 3.33292e-015 -9.61407e-017 9.93923e-017 -1.90546 -1.49089e-016 -9.93923e-017 3.18055e-015 -5.51738e-033 9.93923e-017 3.18055e-015 0 9.93923e-017 -0 0 9.93923e-017 -0 20.7244 -11.1319 -30.6983 -4.24353e-015 -33.6553 3.82101e-015 -2.22639e-014 1.36327e-030 90 0 9.93923e-017 -0 -18.4002 2.92645 17.3477 5.34666e-015 -19.9048 1.69132e-015 -9.93923e-016 -6.08603e-032 -90 6.58222 -20.3439 8.12114 1.19271e-015 66.6064 -0 -5.54587e-008 12.3349 4.99415 6.36111e-015 3.18055e-015 -7.95139e-016 2.62591 -35.019 -10.1899 -2.01595e-015 29.5497 7.31222e-015 2.71675e-008 -7.06637 5.05429 3.97569e-016 -1.59028e-015 -0 
-42.1688 90.6839 75.0569 -4.7278 -16.407 153.796 3.59936 -16.8568 -1.32934e-014 -2.45152e-017 -9.93923e-017 0.191966 1.2424e-016 -9.93923e-017 3.18055e-015 2.48481e-017 -4.96962e-017 3.18055e-015 4.96962e-017 -4.96962e-017 3.18055e-015 4.96962e-017 -4.96962e-017 3.18055e-015 19.327 -8.78332 -32.7073 -2.78632e-015 -31.9622 3.7489e-015 -3.81667e-014 2.33703e-030 90 4.96962e-017 -4.96962e-017 3.18055e-015 -19.6351 -0.523683 18.1919 4.8969e-015 -22.8177 -1.72529e-015 1.90833e-014 1.16852e-030 -90 6.25662 -24.955 7.2517 6.64748e-015 69.7803 -9.20244e-015 2.40019e-008 8.54075 4.89098 3.18055e-015 -3.18055e-015 -1.59028e-015 2.86449 -31.2804 -10.7546 3.12177e-015 27.406 3.58265e-015 -1.17955e-008 -7.91107 5.82326 -5.96354e-016 0 6.36111e-015 
-40.3005 91.2829 72.2795 -4.71024 -15.9724 153.785 3.02366 -16.3713 -3.31496e-015 -3.42049e-016 2.48481e-016 2.18134 4.03781e-017 0 -9.54166e-015 1.55301e-017 0 -6.36111e-015 -4.13804e-033 -1.86361e-017 -1.27222e-014 -4.13804e-033 -1.86361e-017 -1.27222e-014 18.4321 -5.9698 -34.215 1.25475e-014 -30.4986 1.84564e-014 2.54444e-014 -1.55802e-030 90 -4.13804e-033 -1.86361e-017 -1.27222e-014 -21.0903 -4.2849 18.2471 -3.47877e-015 -25.115 -1.05379e-014 3.22031e-014 1.97187e-030 -90 6.23392 -29.3505 7.20716 3.97569e-015 70.3154 -0 1.27809e-008 6.41374 3.92104 -0 -9.54166e-015 -0 3.01503 -27.5526 -11.6985 7.83851e-015 24.9153 -3.50694e-015 2.76441e-008 -8.47735 6.81142 -2.20695e-032 -3.97569e-016 -3.18055e-015 
-38.5486 91.746 69.6031 -5.01447 -15.9661 154.151 2.27697 -16.385 3.31519e-015 -1.12588e-015 -7.20594e-016 3.50803 0 7.45443e-017 -0 -1.2424e-017 2.48481e-017 -0 -2.48481e-017 0 -0 -2.48481e-017 0 -0 17.9079 -2.97011 -35.1061 -9.54166e-015 -28.8259 -0 -4.77083e-014 2.92129e-030 90 -2.48481e-017 0 -0 -22.6811 -7.9416 16.9404 5.8393e-016 -27.434 -0 -9.34288e-015 -5.72086e-031 -90 5.13777 -34.2381 5.88502 4.67574e-014 68.5879 -7.84089e-014 -1.30894e-008 3.9577 3.97405 4.77083e-015 -3.18055e-015 -0 2.95696 -24.3283 -12.7799 2.38542e-015 22.3207 -0 -1.5593e-008 -8.86526 7.58335 -1.98785e-016 0 6.36111e-015 
-36.9561 92.0086 66.9398 -5.37332 -16.1339 154.657 1.48946 -16.3869 -0 1.52589e-016 5.96354e-016 4.48784 -0 0 3.18055e-015 9.93923e-017 0 3.18055e-015 4.96962e-017 9.93923e-017 -0 4.96962e-017 9.93923e-017 -0 17.3766 -0.171479 -34.9067 -0 -26.8021 -0 -5.725e-014 3.50555e-030 90 4.96962e-017 9.93923e-017 -0 -24.4229 -11.3544 14.5844 1.62685e-015 -29.6648 5.94797e-015 -6.36111e-015 -3.89506e-031 -90 3.62872 -38.7828 4.22266 1.11319e-014 64.3381 -0 -1.74344e-008 2.09928 4.63776 -1.59028e-015 0 1.59028e-015 2.77212 -21.719 -13.959 -4.04006e-016 20.5052 -6.79141e-015 1.41334e-008 -9.53824 8.29506 -7.95139e-016 3.97569e-016 3.18055e-015 
-35.4362 92.1003 64.3287 -5.61151 -16.4907 154.944 0.996531 -16.3715 -3.31496e-015 -1.28636e-015 3.97569e-016 5.49188 4.96962e-017 0 -0 4.96962e-017 1.98785e-016 3.18055e-015 1.49089e-016 3.97569e-016 3.18055e-015 1.49089e-016 3.97569e-016 3.18055e-015 17.1111 2.48879 -34.1289 -4.57205e-015 -25.1341 -0 -9.54166e-015 5.84258e-031 90 1.49089e-016 3.97569e-016 3.18055e-015 -26.2635 -14.6501 11.6357 9.58331e-016 -31.542 3.73192e-015 -1.15295e-014 -7.05979e-031 -90 2.67304 -42.4598 3.53969 -2.24178e-016 57.5132 5.92166e-015 5.33377e-009 0.992036 4.79207 4.77083e-015 0 -0 3.03569 -19.0425 -14.462 -1.83524e-015 18.1088 3.3463e-015 -3.48809e-008 -9.77123 8.67235 -3.97569e-016 0 -0 
